<svg xmlns="http://www.w3.org/2000/svg" xmlns:xlink="http://www.w3.org/1999/xlink" width="40" zoomAndPan="magnify" viewBox="0 0 30 30.000001" height="40" preserveAspectRatio="xMidYMid meet" version="1.0"><defs><g/></defs><g fill="#000000" fill-opacity="1"><g transform="translate(9.307321, 18.619624)"><g><path d="M 3.828125 -9.921875 C 3.484375 -9.921875 3.21875 -9.769531 3.03125 -9.46875 C 2.957031 -9.332031 2.914062 -9.179688 2.90625 -9.015625 L 2.90625 0 C 2.90625 0.800781 2.648438 1.476562 2.140625 2.03125 C 1.640625 2.59375 1.019531 2.875 0.28125 2.875 L 0.28125 2.75 C 0.75 2.582031 1.144531 2.226562 1.46875 1.6875 C 1.800781 1.144531 1.96875 0.566406 1.96875 -0.046875 L 1.96875 -9.015625 C 1.957031 -9.265625 1.863281 -9.476562 1.6875 -9.65625 C 1.507812 -9.832031 1.296875 -9.921875 1.046875 -9.921875 L 0.859375 -9.921875 L 0.859375 -10.0625 L 4.015625 -10.0625 L 4.015625 -9.921875 Z M 3.828125 -9.921875 "/></g></g></g><g fill="#000000" fill-opacity="1"><g transform="translate(12.396431, 18.619624)"><g><path d="M 7.578125 -7.28125 C 7.578125 -6.863281 7.488281 -6.472656 7.3125 -6.109375 C 7 -5.429688 6.445312 -4.957031 5.65625 -4.6875 C 5.375 -4.59375 5.132812 -4.546875 4.9375 -4.546875 C 4.34375 -4.546875 3.828125 -4.65625 3.390625 -4.875 L 3.390625 -5.015625 C 4.085938 -4.859375 4.734375 -4.9375 5.328125 -5.25 C 5.859375 -5.519531 6.21875 -5.957031 6.40625 -6.5625 C 6.46875 -6.757812 6.5 -6.941406 6.5 -7.109375 C 6.5 -7.285156 6.5 -7.394531 6.5 -7.4375 C 6.476562 -8.101562 6.300781 -8.632812 5.96875 -9.03125 C 5.632812 -9.425781 5.164062 -9.625 4.5625 -9.625 L 2.90625 -9.625 L 2.90625 -1.046875 C 2.914062 -0.796875 3.007812 -0.582031 3.1875 -0.40625 C 3.363281 -0.226562 3.578125 -0.140625 3.828125 -0.140625 L 4.015625 -0.140625 L 4.015625 0 L 0.859375 0 L 0.859375 -0.140625 L 1.046875 -0.140625 C 1.296875 -0.140625 1.507812 -0.226562 1.6875 -0.40625 C 1.863281 -0.582031 1.957031 -0.796875 1.96875 -1.046875 L 1.96875 -9.078125 C 1.9375 -9.316406 1.832031 -9.515625 1.65625 -9.671875 C 1.488281 -9.835938 1.285156 -9.921875 1.046875 -9.921875 L 0.875 -9.921875 L 0.859375 -10.0625 L 4.609375 -10.0625 C 5.535156 -10.0625 6.257812 -9.8125 6.78125 -9.3125 C 7.3125 -8.820312 7.578125 -8.144531 7.578125 -7.28125 Z M 7.578125 -7.28125 "/></g></g></g></svg>