<svg xmlns="http://www.w3.org/2000/svg" xmlns:xlink="http://www.w3.org/1999/xlink" width="1366" zoomAndPan="magnify" viewBox="0 0 1024.5 576" height="768" preserveAspectRatio="xMidYMid meet" version="1.0"><defs><g/></defs><g fill="#000000" fill-opacity="1"><g transform="translate(425.540959, 352.979485)"><g><path d="M 58.0625 -150.625 C 52.820312 -150.625 48.820312 -148.367188 46.0625 -143.859375 C 44.894531 -141.816406 44.238281 -139.488281 44.09375 -136.875 L 44.09375 0 C 44.09375 12.226562 40.269531 22.5625 32.625 31 C 24.988281 39.4375 15.566406 43.65625 4.359375 43.65625 L 4.359375 41.6875 C 11.492188 39.21875 17.535156 33.867188 22.484375 25.640625 C 27.429688 17.421875 29.90625 8.65625 29.90625 -0.65625 L 29.90625 -136.875 C 29.757812 -140.65625 28.335938 -143.890625 25.640625 -146.578125 C 22.953125 -149.273438 19.71875 -150.625 15.9375 -150.625 L 13.09375 -150.625 L 13.09375 -152.8125 L 60.90625 -152.8125 L 60.90625 -150.625 Z M 58.0625 -150.625 "/></g></g></g><g fill="#000000" fill-opacity="1"><g transform="translate(472.470124, 352.979485)"><g><path d="M 115.046875 -110.671875 C 115.046875 -104.273438 113.734375 -98.3125 111.109375 -92.78125 C 106.304688 -82.445312 97.867188 -75.242188 85.796875 -71.171875 C 81.566406 -69.710938 77.925781 -68.984375 74.875 -68.984375 C 65.851562 -68.984375 58.066406 -70.65625 51.515625 -74 L 51.515625 -76.1875 C 62.140625 -73.851562 71.960938 -75.015625 80.984375 -79.671875 C 88.992188 -83.753906 94.453125 -90.453125 97.359375 -99.765625 C 98.234375 -102.671875 98.671875 -105.429688 98.671875 -108.046875 C 98.671875 -110.671875 98.671875 -112.273438 98.671875 -112.859375 C 98.378906 -123.046875 95.6875 -131.160156 90.59375 -137.203125 C 85.5 -143.242188 78.367188 -146.265625 69.203125 -146.265625 L 44.09375 -146.265625 L 44.09375 -15.9375 C 44.238281 -12.15625 45.65625 -8.914062 48.34375 -6.21875 C 51.039062 -3.53125 54.28125 -2.1875 58.0625 -2.1875 L 60.90625 -2.1875 L 60.90625 0 L 13.09375 0 L 13.09375 -2.1875 L 15.9375 -2.1875 C 19.71875 -2.1875 22.953125 -3.53125 25.640625 -6.21875 C 28.335938 -8.914062 29.757812 -12.15625 29.90625 -15.9375 L 29.90625 -137.96875 C 29.46875 -141.601562 27.9375 -144.617188 25.3125 -147.015625 C 22.695312 -149.421875 19.570312 -150.625 15.9375 -150.625 L 13.3125 -150.625 L 13.09375 -152.8125 L 70.078125 -152.8125 C 84.046875 -152.8125 95.03125 -149.0625 103.03125 -141.5625 C 111.039062 -134.070312 115.046875 -123.773438 115.046875 -110.671875 Z M 115.046875 -110.671875 "/></g></g></g><g fill="#000000" fill-opacity="1"><g transform="translate(295.479822, 294.332895)"><g><path d="M -1.515625 20.140625 C -0.929688 20.140625 -0.296875 19.929688 0.390625 19.515625 C 1.078125 19.109375 1.765625 18.578125 2.453125 17.921875 C 3.140625 17.273438 3.757812 16.609375 4.3125 15.921875 C 4.875 15.234375 5.285156 14.625 5.546875 14.09375 C 5.972656 13.539062 6.441406 12.734375 6.953125 11.671875 C 7.460938 10.609375 7.976562 9.421875 8.5 8.109375 C 9.019531 6.796875 9.5 5.484375 9.9375 4.171875 C 10.382812 2.859375 10.738281 1.675781 11 0.625 C 11.257812 -0.414062 11.390625 -1.179688 11.390625 -1.671875 C 11.160156 -1.535156 10.921875 -1.394531 10.671875 -1.25 C 10.429688 -1.101562 10.179688 -0.945312 9.921875 -0.78125 L 7.125 1.328125 C 6.894531 1.523438 6.671875 1.703125 6.453125 1.859375 C 6.242188 2.023438 6.023438 2.238281 5.796875 2.5 C 5.566406 2.726562 5.351562 2.910156 5.15625 3.046875 C 4.957031 3.179688 4.742188 3.378906 4.515625 3.640625 L 1.171875 7.421875 C 0.453125 8.304688 -0.207031 9.269531 -0.8125 10.3125 C -1.414062 11.363281 -1.960938 12.429688 -2.453125 13.515625 C -2.648438 13.929688 -2.851562 14.507812 -3.0625 15.25 C -3.28125 15.988281 -3.410156 16.734375 -3.453125 17.484375 C -3.503906 18.242188 -3.390625 18.875 -3.109375 19.375 C -2.835938 19.882812 -2.304688 20.140625 -1.515625 20.140625 Z M 0.734375 -19.703125 C 0.734375 -21.046875 0.929688 -22.382812 1.328125 -23.71875 C 1.722656 -25.0625 2.195312 -26.335938 2.75 -27.546875 C 3.3125 -28.765625 3.835938 -29.816406 4.328125 -30.703125 C 4.679688 -31.359375 5.128906 -32.101562 5.671875 -32.9375 C 6.210938 -33.769531 6.816406 -34.578125 7.484375 -35.359375 C 8.160156 -36.148438 8.882812 -36.804688 9.65625 -37.328125 C 10.425781 -37.859375 11.21875 -38.125 12.03125 -38.125 C 13.019531 -38.125 13.832031 -37.6875 14.46875 -36.8125 C 15.101562 -35.945312 15.582031 -34.773438 15.90625 -33.296875 C 16.238281 -31.828125 16.460938 -30.191406 16.578125 -28.390625 C 16.691406 -26.585938 16.722656 -24.738281 16.671875 -22.84375 C 16.628906 -20.945312 16.539062 -19.128906 16.40625 -17.390625 C 16.28125 -15.648438 16.140625 -14.117188 15.984375 -12.796875 C 15.835938 -11.472656 15.71875 -10.484375 15.625 -9.828125 L 14.890625 -5.203125 C 15.242188 -5.398438 15.679688 -5.597656 16.203125 -5.796875 C 16.734375 -5.992188 17.210938 -6.15625 17.640625 -6.28125 C 18.066406 -6.445312 18.5 -6.601562 18.9375 -6.75 C 19.375 -6.894531 19.84375 -7.066406 20.34375 -7.265625 C 21.382812 -7.628906 22.363281 -7.957031 23.28125 -8.25 C 24.195312 -8.539062 25.210938 -8.6875 26.328125 -8.6875 C 26.390625 -8.53125 26.4375 -8.410156 26.46875 -8.328125 C 26.507812 -8.242188 26.53125 -8.117188 26.53125 -7.953125 C 26.53125 -7.859375 26.289062 -7.710938 25.8125 -7.515625 C 25.34375 -7.316406 24.78125 -7.109375 24.125 -6.890625 C 23.46875 -6.679688 22.867188 -6.492188 22.328125 -6.328125 C 21.785156 -6.171875 21.429688 -6.078125 21.265625 -6.046875 C 20.453125 -5.816406 19.5625 -5.53125 18.59375 -5.1875 C 17.625 -4.84375 16.765625 -4.472656 16.015625 -4.078125 C 15.585938 -3.878906 15.265625 -3.75 15.046875 -3.6875 C 14.835938 -3.625 14.675781 -3.507812 14.5625 -3.34375 C 14.445312 -3.175781 14.304688 -2.816406 14.140625 -2.265625 C 13.359375 1.078125 12.367188 4.359375 11.171875 7.578125 C 9.984375 10.804688 8.335938 13.816406 6.234375 16.609375 C 5.710938 17.265625 5.035156 17.984375 4.203125 18.765625 C 3.367188 19.546875 2.472656 20.210938 1.515625 20.765625 C 0.566406 21.328125 -0.363281 21.609375 -1.28125 21.609375 C -2.320312 21.609375 -3.1875 21.320312 -3.875 20.75 C -4.5625 20.175781 -4.90625 19.398438 -4.90625 18.421875 L -4.90625 17.046875 C -4.90625 16.128906 -4.707031 15.140625 -4.3125 14.078125 C -3.925781 13.015625 -3.429688 11.929688 -2.828125 10.828125 C -2.222656 9.734375 -1.582031 8.703125 -0.90625 7.734375 C -0.238281 6.765625 0.390625 5.9375 0.984375 5.25 C 2.222656 3.78125 3.472656 2.476562 4.734375 1.34375 C 5.992188 0.21875 7.410156 -0.898438 8.984375 -2.015625 L 11.84375 -3.6875 C 11.9375 -3.8125 12.054688 -4.234375 12.203125 -4.953125 C 12.347656 -5.679688 12.492188 -6.519531 12.640625 -7.46875 C 12.796875 -8.414062 12.929688 -9.289062 13.046875 -10.09375 C 13.160156 -10.894531 13.234375 -11.441406 13.265625 -11.734375 C 13.328125 -12.390625 13.390625 -13.078125 13.453125 -13.796875 C 13.523438 -14.523438 13.609375 -15.25 13.703125 -15.96875 L 14.296875 -24.765625 C 14.296875 -25.515625 14.242188 -26.234375 14.140625 -26.921875 C 14.078125 -27.640625 14.0625 -28.472656 14.09375 -29.421875 C 14.125 -30.367188 13.929688 -31.644531 13.515625 -33.25 C 13.285156 -34.300781 13 -35.046875 12.65625 -35.484375 C 12.3125 -35.929688 11.941406 -36.15625 11.546875 -36.15625 C 11.054688 -36.15625 10.515625 -35.882812 9.921875 -35.34375 C 9.328125 -34.800781 8.6875 -34.070312 8 -33.15625 C 7.125 -32.039062 6.242188 -30.707031 5.359375 -29.15625 C 4.472656 -27.601562 3.722656 -25.984375 3.109375 -24.296875 C 2.503906 -22.609375 2.203125 -20.976562 2.203125 -19.40625 C 2.203125 -18.519531 2.300781 -17.675781 2.5 -16.875 C 2.695312 -16.070312 3.125 -15.441406 3.78125 -14.984375 C 4.144531 -14.648438 4.441406 -14.484375 4.671875 -14.484375 C 4.898438 -14.484375 5.273438 -14.4375 5.796875 -14.34375 C 6.253906 -14.25 6.472656 -14.019531 6.453125 -13.65625 C 6.441406 -13.289062 6.269531 -13.109375 5.9375 -13.109375 C 5.019531 -13.109375 4.222656 -13.210938 3.546875 -13.421875 C 2.878906 -13.640625 2.238281 -14.207031 1.625 -15.125 C 1.257812 -15.71875 1.019531 -16.40625 0.90625 -17.1875 C 0.789062 -17.976562 0.734375 -18.816406 0.734375 -19.703125 Z M 0.734375 -19.703125 "/></g></g></g><g fill="#000000" fill-opacity="1"><g transform="translate(319.644876, 294.332895)"><g><path d="M 2.453125 -1.125 C 2.941406 -1.257812 3.382812 -1.691406 3.78125 -2.421875 C 4.175781 -3.160156 4.453125 -4.003906 4.609375 -4.953125 C 4.773438 -5.910156 4.816406 -6.789062 4.734375 -7.59375 C 4.660156 -8.394531 4.410156 -8.941406 3.984375 -9.234375 C 3.878906 -8.867188 3.695312 -8.351562 3.4375 -7.6875 C 3.175781 -7.019531 2.921875 -6.285156 2.671875 -5.484375 C 2.429688 -4.679688 2.269531 -3.894531 2.1875 -3.125 C 2.101562 -2.351562 2.191406 -1.6875 2.453125 -1.125 Z M 0 -2.796875 C 0 -3.222656 0.0859375 -3.851562 0.265625 -4.6875 C 0.453125 -5.519531 0.707031 -6.421875 1.03125 -7.390625 C 1.351562 -8.359375 1.71875 -9.273438 2.125 -10.140625 C 2.539062 -11.015625 2.984375 -11.726562 3.453125 -12.28125 C 3.929688 -12.832031 4.414062 -13.109375 4.90625 -13.109375 C 5.238281 -13.109375 5.46875 -12.960938 5.59375 -12.671875 C 5.726562 -12.378906 5.765625 -12.132812 5.703125 -11.9375 C 5.628906 -11.769531 5.503906 -11.601562 5.328125 -11.4375 C 5.148438 -11.28125 4.992188 -11.101562 4.859375 -10.90625 C 4.929688 -10.675781 5.097656 -10.421875 5.359375 -10.140625 C 5.617188 -9.867188 5.878906 -9.5 6.140625 -9.03125 C 6.398438 -8.570312 6.570312 -7.953125 6.65625 -7.171875 C 6.738281 -6.390625 6.648438 -5.359375 6.390625 -4.078125 C 6.023438 -2.367188 5.445312 -1.085938 4.65625 -0.234375 C 3.875 0.609375 3.109375 1.03125 2.359375 1.03125 C 1.734375 1.03125 1.179688 0.707031 0.703125 0.0625 C 0.234375 -0.570312 0 -1.523438 0 -2.796875 Z M 0 -2.796875 "/></g></g></g><g fill="#000000" fill-opacity="1"><g transform="translate(328.289289, 294.332895)"><g><path d="M -0.296875 -4.078125 L 0 -9.625 C 0.03125 -9.988281 0.0625 -10.421875 0.09375 -10.921875 C 0.125 -11.429688 0.160156 -11.867188 0.203125 -12.234375 C 0.265625 -13.867188 0.46875 -15.488281 0.8125 -17.09375 C 1.15625 -18.695312 1.523438 -20.285156 1.921875 -21.859375 C 2.148438 -22.515625 2.328125 -22.945312 2.453125 -23.15625 C 2.585938 -23.375 2.769531 -23.484375 3 -23.484375 C 3.09375 -23.484375 3.203125 -23.472656 3.328125 -23.453125 C 3.460938 -23.441406 3.613281 -23.421875 3.78125 -23.390625 C 3.945312 -22.628906 3.914062 -21.734375 3.6875 -20.703125 C 3.457031 -19.671875 3.273438 -18.726562 3.140625 -17.875 C 2.785156 -15.613281 2.492188 -13.125 2.265625 -10.40625 C 2.035156 -7.695312 1.921875 -5.113281 1.921875 -2.65625 L 2.0625 2.84375 L 2.453125 1.921875 C 2.910156 0.609375 3.296875 -0.492188 3.609375 -1.390625 C 3.921875 -2.296875 4.28125 -3.191406 4.6875 -4.078125 C 5.101562 -4.960938 5.65625 -6.039062 6.34375 -7.3125 C 6.695312 -7.96875 7.046875 -8.523438 7.390625 -8.984375 C 7.734375 -9.441406 8.265625 -9.671875 8.984375 -9.671875 C 9.347656 -9.671875 9.601562 -9.410156 9.75 -8.890625 C 9.894531 -8.367188 9.984375 -7.796875 10.015625 -7.171875 C 10.054688 -6.546875 10.078125 -6.085938 10.078125 -5.796875 C 10.078125 -4.878906 10.097656 -4.097656 10.140625 -3.453125 C 10.191406 -2.816406 10.378906 -2.191406 10.703125 -1.578125 C 11.460938 -1.734375 12.101562 -2.210938 12.625 -3.015625 C 13.144531 -3.816406 13.617188 -4.515625 14.046875 -5.109375 C 14.273438 -5.472656 14.488281 -5.832031 14.6875 -6.1875 C 14.882812 -6.550781 15.082031 -6.925781 15.28125 -7.3125 C 15.570312 -7.84375 15.804688 -8.203125 15.984375 -8.390625 C 16.171875 -8.585938 16.363281 -8.6875 16.5625 -8.6875 C 16.65625 -8.6875 16.832031 -8.65625 17.09375 -8.59375 C 17.257812 -8.007812 17.226562 -7.535156 17 -7.171875 C 16.769531 -6.804688 16.523438 -6.378906 16.265625 -5.890625 C 16.035156 -5.460938 15.722656 -4.914062 15.328125 -4.25 C 14.929688 -3.582031 14.488281 -2.925781 14 -2.28125 C 13.507812 -1.644531 12.984375 -1.101562 12.421875 -0.65625 C 11.867188 -0.21875 11.296875 0 10.703125 0 C 9.628906 0 8.925781 -0.960938 8.59375 -2.890625 C 8.5 -3.453125 8.429688 -4.195312 8.390625 -5.125 C 8.359375 -6.0625 8.34375 -6.875 8.34375 -7.5625 C 8.113281 -7.394531 7.835938 -7.015625 7.515625 -6.421875 C 7.191406 -5.835938 6.863281 -5.175781 6.53125 -4.4375 C 6.207031 -3.707031 5.90625 -3 5.625 -2.3125 C 5.34375 -1.625 5.125 -1.097656 4.96875 -0.734375 C 4.570312 0.273438 4.25 1.285156 4 2.296875 C 3.757812 3.316406 3.488281 4.285156 3.1875 5.203125 C 3.03125 5.734375 2.84375 6.070312 2.625 6.21875 C 2.414062 6.363281 2.082031 6.4375 1.625 6.4375 C 1.257812 6.4375 0.960938 6.125 0.734375 5.5 C 0.503906 4.875 0.316406 4.09375 0.171875 3.15625 C 0.0234375 2.226562 -0.078125 1.265625 -0.140625 0.265625 C -0.210938 -0.734375 -0.253906 -1.632812 -0.265625 -2.4375 C -0.285156 -3.238281 -0.296875 -3.785156 -0.296875 -4.078125 Z M -0.296875 -4.078125 "/></g></g></g><g fill="#000000" fill-opacity="1"><g transform="translate(343.269649, 294.332895)"><g><path d="M 0 -4.96875 C 0 -5.65625 0.160156 -6.503906 0.484375 -7.515625 C 0.816406 -8.523438 1.273438 -9.53125 1.859375 -10.53125 C 2.453125 -11.53125 3.132812 -12.359375 3.90625 -13.015625 C 4.675781 -13.671875 5.488281 -14 6.34375 -14 C 7.125 -14 7.757812 -13.769531 8.25 -13.3125 C 8.738281 -12.851562 9.03125 -12.382812 9.125 -11.90625 C 9.226562 -11.4375 9.066406 -11.203125 8.640625 -11.203125 C 8.316406 -11.203125 7.984375 -11.390625 7.640625 -11.765625 C 7.296875 -12.140625 6.894531 -12.328125 6.4375 -12.328125 C 6.070312 -12.328125 5.632812 -12.113281 5.125 -11.6875 C 4.625 -11.257812 4.015625 -10.425781 3.296875 -9.1875 C 2.960938 -8.664062 2.65625 -7.984375 2.375 -7.140625 C 2.101562 -6.304688 1.96875 -5.484375 1.96875 -4.671875 C 2.03125 -4.734375 2.050781 -4.753906 2.03125 -4.734375 C 2.019531 -4.722656 2.078125 -4.78125 2.203125 -4.90625 L 2.609375 -5.5 C 2.867188 -5.894531 3.171875 -6.398438 3.515625 -7.015625 C 3.859375 -7.640625 4.207031 -8.269531 4.5625 -8.90625 C 4.925781 -9.550781 5.253906 -10.09375 5.546875 -10.53125 C 5.847656 -10.976562 6.078125 -11.203125 6.234375 -11.203125 C 6.828125 -11.203125 7.171875 -10.988281 7.265625 -10.5625 C 7.367188 -10.132812 7.410156 -9.609375 7.390625 -8.984375 C 7.378906 -8.367188 7.4375 -7.75 7.5625 -7.125 C 7.757812 -6.238281 8.0625 -5.585938 8.46875 -5.171875 C 8.882812 -4.765625 9.351562 -4.5625 9.875 -4.5625 C 10.789062 -4.5625 11.804688 -5.117188 12.921875 -6.234375 C 13.378906 -6.660156 13.707031 -7.015625 13.90625 -7.296875 C 14.101562 -7.578125 14.363281 -7.894531 14.6875 -8.25 C 14.914062 -8.582031 15.210938 -8.75 15.578125 -8.75 C 15.929688 -8.75 16.082031 -8.441406 16.03125 -7.828125 C 15.988281 -7.222656 15.34375 -6.316406 14.09375 -5.109375 L 12.625 -3.9375 C 11.675781 -3.28125 10.757812 -2.953125 9.875 -2.953125 C 9.050781 -2.953125 8.335938 -3.195312 7.734375 -3.6875 C 7.128906 -4.175781 6.660156 -4.78125 6.328125 -5.5 C 6.003906 -6.21875 5.84375 -6.921875 5.84375 -7.609375 C 5.613281 -7.453125 5.351562 -7.09375 5.0625 -6.53125 C 4.769531 -5.976562 4.453125 -5.378906 4.109375 -4.734375 C 3.765625 -4.097656 3.410156 -3.539062 3.046875 -3.0625 C 2.679688 -2.59375 2.320312 -2.359375 1.96875 -2.359375 C 1.050781 -2.359375 0.492188 -2.570312 0.296875 -3 C 0.0976562 -3.425781 0 -4.082031 0 -4.96875 Z M 0 -4.96875 "/></g></g></g><g fill="#000000" fill-opacity="1"><g transform="translate(357.513284, 294.332895)"><g><path d="M 1.375 -2.546875 C 0.75 -2.546875 0.347656 -2.921875 0.171875 -3.671875 C -0.00390625 -4.429688 -0.03125 -5.375 0.09375 -6.5 C 0.226562 -7.632812 0.46875 -8.765625 0.8125 -9.890625 C 1.15625 -11.023438 1.539062 -11.96875 1.96875 -12.71875 C 2.394531 -13.476562 2.785156 -13.859375 3.140625 -13.859375 C 3.703125 -13.859375 3.960938 -13.601562 3.921875 -13.09375 C 3.890625 -12.582031 3.726562 -11.910156 3.4375 -11.078125 C 3.144531 -10.242188 2.847656 -9.328125 2.546875 -8.328125 C 2.253906 -7.328125 2.109375 -6.351562 2.109375 -5.40625 L 4.46875 -8.984375 C 4.570312 -9.179688 4.785156 -9.523438 5.109375 -10.015625 C 5.429688 -10.515625 5.796875 -10.972656 6.203125 -11.390625 C 6.617188 -11.816406 7.023438 -12.03125 7.421875 -12.03125 C 7.804688 -12.03125 8.113281 -11.769531 8.34375 -11.25 L 8.640625 -8.5 C 8.640625 -8.207031 8.65625 -7.75 8.6875 -7.125 C 8.726562 -6.5 8.804688 -5.867188 8.921875 -5.234375 C 9.035156 -4.597656 9.222656 -4.046875 9.484375 -3.578125 C 9.742188 -3.117188 10.101562 -2.890625 10.5625 -2.890625 C 11.050781 -2.890625 11.566406 -3.1875 12.109375 -3.78125 C 12.648438 -4.375 13.171875 -5.050781 13.671875 -5.8125 C 14.179688 -6.582031 14.640625 -7.265625 15.046875 -7.859375 C 15.460938 -8.453125 15.785156 -8.75 16.015625 -8.75 C 16.503906 -8.75 16.734375 -8.554688 16.703125 -8.171875 C 16.671875 -7.796875 16.503906 -7.363281 16.203125 -6.875 C 15.910156 -6.382812 15.609375 -5.925781 15.296875 -5.5 C 14.984375 -5.070312 14.796875 -4.8125 14.734375 -4.71875 C 14.503906 -4.425781 14.191406 -4.046875 13.796875 -3.578125 C 13.410156 -3.117188 13.003906 -2.691406 12.578125 -2.296875 C 12.148438 -1.910156 11.738281 -1.671875 11.34375 -1.578125 C 11.019531 -1.472656 10.710938 -1.421875 10.421875 -1.421875 C 9.660156 -1.421875 9.054688 -1.695312 8.609375 -2.25 C 8.171875 -2.8125 7.835938 -3.421875 7.609375 -4.078125 C 7.285156 -5.054688 7.109375 -5.929688 7.078125 -6.703125 C 7.046875 -7.472656 7.046875 -8.128906 7.078125 -8.671875 C 7.109375 -9.210938 7.039062 -9.628906 6.875 -9.921875 C 6.476562 -9.660156 6.0625 -9.132812 5.625 -8.34375 C 5.1875 -7.5625 4.726562 -6.71875 4.25 -5.8125 C 3.769531 -4.914062 3.289062 -4.144531 2.8125 -3.5 C 2.34375 -2.863281 1.863281 -2.546875 1.375 -2.546875 Z M 1.375 -2.546875 "/></g></g></g><g fill="#000000" fill-opacity="1"><g transform="translate(372.248075, 294.332895)"><g><path d="M 0.59375 8.109375 C 0.59375 8.796875 0.804688 9.140625 1.234375 9.140625 C 1.460938 9.140625 1.707031 9.054688 1.96875 8.890625 C 2.226562 8.722656 2.441406 8.578125 2.609375 8.453125 C 3.265625 7.960938 3.84375 7.21875 4.34375 6.21875 C 4.851562 5.21875 5.222656 4.304688 5.453125 3.484375 C 5.617188 2.929688 5.707031 2.367188 5.71875 1.796875 C 5.738281 1.222656 5.75 0.59375 5.75 -0.09375 C 5.351562 0.132812 4.898438 0.535156 4.390625 1.109375 C 3.890625 1.679688 3.488281 2.144531 3.1875 2.5 C 2.601562 3.226562 2.023438 4.097656 1.453125 5.109375 C 0.878906 6.117188 0.59375 7.117188 0.59375 8.109375 Z M 0.140625 -7.953125 C 0.140625 -8.804688 0.367188 -9.566406 0.828125 -10.234375 C 1.285156 -10.910156 1.832031 -11.453125 2.46875 -11.859375 C 3.113281 -12.273438 3.664062 -12.484375 4.125 -12.484375 C 4.488281 -12.484375 4.757812 -12.347656 4.9375 -12.078125 C 5.113281 -11.816406 5.125 -11.378906 4.96875 -10.765625 C 4.570312 -10.660156 4.289062 -10.597656 4.125 -10.578125 C 3.957031 -10.566406 3.828125 -10.519531 3.734375 -10.4375 C 3.640625 -10.351562 3.457031 -10.164062 3.1875 -9.875 C 2.53125 -9.15625 2.226562 -8.570312 2.28125 -8.125 C 2.332031 -7.6875 2.59375 -7.28125 3.0625 -6.90625 C 3.539062 -6.53125 4.128906 -6.0625 4.828125 -5.5 C 5.535156 -4.945312 6.203125 -4.195312 6.828125 -3.25 C 7.546875 -3.738281 8.28125 -4.3125 9.03125 -4.96875 L 13.609375 -8.15625 C 14.035156 -8.445312 14.398438 -8.648438 14.703125 -8.765625 C 15.015625 -8.878906 15.289062 -8.9375 15.53125 -8.9375 C 15.914062 -8.9375 16.078125 -8.769531 16.015625 -8.4375 C 15.953125 -8.113281 15.640625 -7.789062 15.078125 -7.46875 L 11.734375 -5.15625 C 11.609375 -5.09375 11.332031 -4.90625 10.90625 -4.59375 C 10.476562 -4.28125 10.007812 -3.9375 9.5 -3.5625 C 9 -3.1875 8.566406 -2.832031 8.203125 -2.5 C 7.835938 -2.175781 7.640625 -1.960938 7.609375 -1.859375 C 7.578125 -1.703125 7.625 -1.394531 7.75 -0.9375 C 7.882812 -0.476562 7.976562 0.117188 8.03125 0.859375 C 8.082031 1.597656 7.984375 2.5 7.734375 3.5625 C 7.492188 4.625 6.960938 5.859375 6.140625 7.265625 C 5.421875 8.484375 4.632812 9.378906 3.78125 9.953125 C 2.925781 10.523438 2.125 10.8125 1.375 10.8125 C 0.6875 10.8125 0.125 10.582031 -0.3125 10.125 C -0.757812 9.664062 -0.984375 8.992188 -0.984375 8.109375 C -0.984375 6.992188 -0.710938 5.910156 -0.171875 4.859375 C 0.367188 3.816406 1.015625 2.851562 1.765625 1.96875 C 2.515625 1.082031 3.207031 0.320312 3.84375 -0.3125 C 4.488281 -0.957031 4.910156 -1.425781 5.109375 -1.71875 C 4.710938 -2.40625 4.234375 -3.003906 3.671875 -3.515625 C 3.117188 -4.023438 2.570312 -4.488281 2.03125 -4.90625 C 1.5 -5.332031 1.050781 -5.78125 0.6875 -6.25 C 0.320312 -6.726562 0.140625 -7.296875 0.140625 -7.953125 Z M 0.140625 -7.953125 "/></g></g></g><g fill="#000000" fill-opacity="1"><g transform="translate(386.442585, 294.332895)"><g><path d="M 2.265625 -8.890625 C 2.878906 -9.222656 3.5625 -9.675781 4.3125 -10.25 C 5.070312 -10.820312 5.484375 -11.5 5.546875 -12.28125 C 5.117188 -12.21875 4.664062 -11.988281 4.1875 -11.59375 C 3.71875 -11.195312 3.3125 -10.753906 2.96875 -10.265625 C 2.625 -9.773438 2.390625 -9.316406 2.265625 -8.890625 Z M 0.046875 -7.71875 C 0.046875 -8.53125 0.316406 -9.410156 0.859375 -10.359375 C 1.398438 -11.316406 2.070312 -12.128906 2.875 -12.796875 C 3.675781 -13.460938 4.46875 -13.796875 5.25 -13.796875 C 6.332031 -13.796875 6.898438 -13.382812 6.953125 -12.5625 C 7.003906 -11.75 6.648438 -10.867188 5.890625 -9.921875 C 5.503906 -9.492188 4.914062 -9 4.125 -8.4375 C 3.34375 -7.882812 2.570312 -7.578125 1.8125 -7.515625 C 1.8125 -6.992188 1.828125 -6.523438 1.859375 -6.109375 C 1.898438 -5.703125 2.128906 -5.285156 2.546875 -4.859375 C 2.972656 -4.429688 3.515625 -4.21875 4.171875 -4.21875 C 5.023438 -4.21875 5.910156 -4.488281 6.828125 -5.03125 C 7.742188 -5.570312 8.445312 -6.023438 8.9375 -6.390625 C 9.132812 -6.546875 9.289062 -6.671875 9.40625 -6.765625 C 9.519531 -6.867188 9.660156 -6.988281 9.828125 -7.125 C 10.515625 -7.644531 10.945312 -8.023438 11.125 -8.265625 C 11.300781 -8.515625 11.457031 -8.679688 11.59375 -8.765625 C 11.726562 -8.847656 12.039062 -8.890625 12.53125 -8.890625 C 12.59375 -8.523438 12.613281 -8.273438 12.59375 -8.140625 C 12.582031 -8.015625 12.460938 -7.820312 12.234375 -7.5625 C 11.640625 -6.976562 10.890625 -6.304688 9.984375 -5.546875 C 9.085938 -4.796875 8.125 -4.140625 7.09375 -3.578125 C 6.0625 -3.023438 5.039062 -2.75 4.03125 -2.75 C 3.507812 -2.75 3.007812 -2.835938 2.53125 -3.015625 C 2.050781 -3.203125 1.597656 -3.507812 1.171875 -3.9375 C 0.585938 -4.519531 0.253906 -5.125 0.171875 -5.75 C 0.0859375 -6.375 0.046875 -7.03125 0.046875 -7.71875 Z M 0.046875 -7.71875 "/></g></g></g><g fill="#000000" fill-opacity="1"><g transform="translate(397.100748, 294.332895)"><g><path d="M 1.375 -2.546875 C 0.75 -2.546875 0.347656 -2.921875 0.171875 -3.671875 C -0.00390625 -4.429688 -0.03125 -5.375 0.09375 -6.5 C 0.226562 -7.632812 0.46875 -8.765625 0.8125 -9.890625 C 1.15625 -11.023438 1.539062 -11.96875 1.96875 -12.71875 C 2.394531 -13.476562 2.785156 -13.859375 3.140625 -13.859375 C 3.703125 -13.859375 3.960938 -13.601562 3.921875 -13.09375 C 3.890625 -12.582031 3.726562 -11.910156 3.4375 -11.078125 C 3.144531 -10.242188 2.847656 -9.328125 2.546875 -8.328125 C 2.253906 -7.328125 2.109375 -6.351562 2.109375 -5.40625 L 4.46875 -8.984375 C 4.570312 -9.179688 4.785156 -9.523438 5.109375 -10.015625 C 5.429688 -10.515625 5.796875 -10.972656 6.203125 -11.390625 C 6.617188 -11.816406 7.023438 -12.03125 7.421875 -12.03125 C 7.804688 -12.03125 8.113281 -11.769531 8.34375 -11.25 L 8.640625 -8.5 C 8.640625 -8.207031 8.65625 -7.75 8.6875 -7.125 C 8.726562 -6.5 8.804688 -5.867188 8.921875 -5.234375 C 9.035156 -4.597656 9.222656 -4.046875 9.484375 -3.578125 C 9.742188 -3.117188 10.101562 -2.890625 10.5625 -2.890625 C 11.050781 -2.890625 11.566406 -3.1875 12.109375 -3.78125 C 12.648438 -4.375 13.171875 -5.050781 13.671875 -5.8125 C 14.179688 -6.582031 14.640625 -7.265625 15.046875 -7.859375 C 15.460938 -8.453125 15.785156 -8.75 16.015625 -8.75 C 16.503906 -8.75 16.734375 -8.554688 16.703125 -8.171875 C 16.671875 -7.796875 16.503906 -7.363281 16.203125 -6.875 C 15.910156 -6.382812 15.609375 -5.925781 15.296875 -5.5 C 14.984375 -5.070312 14.796875 -4.8125 14.734375 -4.71875 C 14.503906 -4.425781 14.191406 -4.046875 13.796875 -3.578125 C 13.410156 -3.117188 13.003906 -2.691406 12.578125 -2.296875 C 12.148438 -1.910156 11.738281 -1.671875 11.34375 -1.578125 C 11.019531 -1.472656 10.710938 -1.421875 10.421875 -1.421875 C 9.660156 -1.421875 9.054688 -1.695312 8.609375 -2.25 C 8.171875 -2.8125 7.835938 -3.421875 7.609375 -4.078125 C 7.285156 -5.054688 7.109375 -5.929688 7.078125 -6.703125 C 7.046875 -7.472656 7.046875 -8.128906 7.078125 -8.671875 C 7.109375 -9.210938 7.039062 -9.628906 6.875 -9.921875 C 6.476562 -9.660156 6.0625 -9.132812 5.625 -8.34375 C 5.1875 -7.5625 4.726562 -6.71875 4.25 -5.8125 C 3.769531 -4.914062 3.289062 -4.144531 2.8125 -3.5 C 2.34375 -2.863281 1.863281 -2.546875 1.375 -2.546875 Z M 1.375 -2.546875 "/></g></g></g><g fill="#000000" fill-opacity="1"><g transform="translate(617.676442, 294.332895)"><g><path d="M 13.109375 4.859375 C 15.304688 4.859375 17.40625 4.375 19.40625 3.40625 C 21.40625 2.445312 23.238281 1.222656 24.90625 -0.265625 C 26.570312 -1.753906 27.976562 -3.285156 29.125 -4.859375 C 30.46875 -6.597656 31.644531 -8.519531 32.65625 -10.625 C 33.675781 -12.738281 34.472656 -14.929688 35.046875 -17.203125 C 35.617188 -19.484375 35.90625 -21.707031 35.90625 -23.875 C 35.90625 -25.675781 35.648438 -27.335938 35.140625 -28.859375 C 34.640625 -30.378906 33.90625 -31.597656 32.9375 -32.515625 C 31.96875 -33.429688 30.796875 -33.890625 29.421875 -33.890625 C 27.921875 -33.890625 26.515625 -33.4375 25.203125 -32.53125 C 23.890625 -31.632812 22.679688 -30.484375 21.578125 -29.078125 C 20.484375 -27.671875 19.535156 -26.210938 18.734375 -24.703125 C 17.929688 -23.203125 17.300781 -21.863281 16.84375 -20.6875 L 14.9375 -15.578125 C 14.34375 -13.804688 13.765625 -11.960938 13.203125 -10.046875 C 12.648438 -8.128906 12.195312 -6.285156 11.84375 -4.515625 C 11.769531 -4.085938 11.648438 -3.457031 11.484375 -2.625 C 11.328125 -1.789062 11.15625 -0.910156 10.96875 0.015625 C 10.789062 0.953125 10.644531 1.820312 10.53125 2.625 C 10.414062 3.425781 10.359375 4.007812 10.359375 4.375 C 10.628906 4.5 11.050781 4.609375 11.625 4.703125 C 12.195312 4.804688 12.691406 4.859375 13.109375 4.859375 Z M 10.359375 -5.40625 C 10.359375 -5.4375 10.367188 -5.453125 10.390625 -5.453125 C 10.410156 -5.453125 10.421875 -5.46875 10.421875 -5.5 L 11 -7.859375 C 11.425781 -9.628906 11.972656 -11.609375 12.640625 -13.796875 C 13.316406 -15.992188 14.097656 -18.195312 14.984375 -20.40625 C 15.867188 -22.625 16.859375 -24.695312 17.953125 -26.625 C 19.046875 -28.5625 20.21875 -30.148438 21.46875 -31.390625 C 22.644531 -32.566406 23.847656 -33.5625 25.078125 -34.375 C 26.304688 -35.195312 27.789062 -35.609375 29.53125 -35.609375 C 30.863281 -35.609375 32.070312 -35.269531 33.15625 -34.59375 C 34.238281 -33.925781 35.15625 -33.003906 35.90625 -31.828125 C 36.789062 -30.421875 37.378906 -28.875 37.671875 -27.1875 C 37.972656 -25.5 38.039062 -23.765625 37.875 -21.984375 C 37.707031 -20.203125 37.410156 -18.457031 36.984375 -16.75 C 36.566406 -15.050781 36.09375 -13.515625 35.5625 -12.140625 C 34.78125 -9.972656 33.632812 -7.785156 32.125 -5.578125 C 30.625 -3.367188 28.878906 -1.332031 26.890625 0.53125 C 24.910156 2.40625 22.757812 3.90625 20.4375 5.03125 C 18.113281 6.164062 15.722656 6.734375 13.265625 6.734375 C 12.472656 6.734375 11.835938 6.65625 11.359375 6.5 C 10.890625 6.351562 10.425781 6.265625 9.96875 6.234375 L 9.28125 14.25 C 9.21875 14.632812 9.171875 15.273438 9.140625 16.171875 C 9.109375 17.078125 9.070312 17.976562 9.03125 18.875 C 9 19.78125 8.953125 20.476562 8.890625 20.96875 C 8.828125 21.757812 8.773438 22.515625 8.734375 23.234375 C 8.703125 23.953125 8.628906 24.539062 8.515625 25 C 8.398438 25.457031 8.132812 25.6875 7.71875 25.6875 C 7.445312 25.6875 7.179688 25.625 6.921875 25.5 C 6.796875 25.007812 6.722656 24.164062 6.703125 22.96875 C 6.691406 21.769531 6.703125 20.46875 6.734375 19.0625 C 6.765625 17.65625 6.800781 16.328125 6.84375 15.078125 C 6.894531 13.835938 6.921875 12.90625 6.921875 12.28125 C 6.921875 11.5625 6.945312 10.921875 7 10.359375 C 7.050781 9.804688 7.078125 9.21875 7.078125 8.59375 C 7.078125 7.84375 7.09375 7.222656 7.125 6.734375 C 7.15625 6.242188 7.171875 5.671875 7.171875 5.015625 C 7.003906 4.847656 6.8125 4.695312 6.59375 4.5625 C 6.382812 4.4375 6.1875 4.304688 6 4.171875 C 5.40625 3.742188 5.125 3.316406 5.15625 2.890625 C 5.1875 2.472656 5.382812 2.265625 5.75 2.265625 C 5.976562 2.265625 6.175781 2.328125 6.34375 2.453125 C 6.570312 2.585938 6.75 2.703125 6.875 2.796875 C 7.007812 2.898438 7.109375 2.953125 7.171875 2.953125 C 7.304688 2.953125 7.363281 2.769531 7.34375 2.40625 C 7.320312 2.039062 7.332031 1.398438 7.375 0.484375 C 7.375 0.0664062 7.394531 -0.222656 7.4375 -0.390625 C 7.488281 -0.554688 7.515625 -0.835938 7.515625 -1.234375 C 7.546875 -1.554688 7.550781 -1.890625 7.53125 -2.234375 C 7.519531 -2.578125 7.53125 -2.914062 7.5625 -3.25 C 7.59375 -3.601562 7.625 -3.894531 7.65625 -4.125 C 7.695312 -4.351562 7.71875 -4.679688 7.71875 -5.109375 C 7.71875 -6.117188 7.75 -7.3125 7.8125 -8.6875 C 7.875 -10.070312 7.945312 -11.453125 8.03125 -12.828125 C 8.113281 -14.203125 8.15625 -15.410156 8.15625 -16.453125 C 8.15625 -17.109375 8.175781 -17.984375 8.21875 -19.078125 C 8.269531 -20.179688 8.296875 -21.347656 8.296875 -22.578125 C 8.296875 -23.804688 8.265625 -24.953125 8.203125 -26.015625 C 8.140625 -27.078125 7.976562 -27.867188 7.71875 -28.390625 C 7.351562 -28.160156 7.003906 -27.757812 6.671875 -27.1875 C 6.347656 -26.613281 6.046875 -26 5.765625 -25.34375 C 5.492188 -24.6875 5.257812 -24.113281 5.0625 -23.625 C 4.769531 -22.8125 4.507812 -21.835938 4.28125 -20.703125 C 4.050781 -19.578125 3.851562 -18.585938 3.6875 -17.734375 C 3.550781 -16.617188 3.507812 -15.476562 3.5625 -14.3125 C 3.613281 -13.15625 3.71875 -12.085938 3.875 -11.109375 C 4.101562 -9.992188 4.347656 -9.210938 4.609375 -8.765625 C 4.878906 -8.328125 5.128906 -8.039062 5.359375 -7.90625 C 5.585938 -7.78125 5.734375 -7.617188 5.796875 -7.421875 C 5.960938 -7.191406 5.976562 -6.976562 5.84375 -6.78125 C 5.71875 -6.582031 5.519531 -6.484375 5.25 -6.484375 C 4.957031 -6.484375 4.609375 -6.644531 4.203125 -6.96875 C 3.796875 -7.300781 3.410156 -7.875 3.046875 -8.6875 C 2.679688 -9.675781 2.445312 -10.535156 2.34375 -11.265625 C 2.25 -12.003906 2.140625 -12.882812 2.015625 -13.90625 C 1.984375 -14.226562 1.988281 -14.492188 2.03125 -14.703125 C 2.082031 -14.921875 2.109375 -15.242188 2.109375 -15.671875 C 2.109375 -17.472656 2.296875 -19.222656 2.671875 -20.921875 C 3.054688 -22.628906 3.554688 -24.269531 4.171875 -25.84375 C 4.367188 -26.300781 4.640625 -26.890625 4.984375 -27.609375 C 5.328125 -28.328125 5.734375 -28.972656 6.203125 -29.546875 C 6.679688 -30.117188 7.1875 -30.40625 7.71875 -30.40625 C 8.40625 -30.40625 8.941406 -30.109375 9.328125 -29.515625 C 9.722656 -28.929688 10.007812 -28.1875 10.1875 -27.28125 C 10.375 -26.382812 10.488281 -25.4375 10.53125 -24.4375 C 10.582031 -23.4375 10.609375 -22.53125 10.609375 -21.71875 C 10.609375 -18.894531 10.566406 -16.125 10.484375 -13.40625 C 10.398438 -10.6875 10.359375 -8.019531 10.359375 -5.40625 Z M 10.359375 -5.40625 "/></g></g></g><g fill="#000000" fill-opacity="1"><g transform="translate(655.741312, 294.332895)"><g><path d="M 0.6875 -0.203125 C 0.363281 -0.203125 0.164062 -0.40625 0.09375 -0.8125 C 0.03125 -1.21875 0.015625 -1.648438 0.046875 -2.109375 C 0.078125 -2.566406 0.09375 -2.847656 0.09375 -2.953125 C 0.0625 -3.535156 0.0507812 -4.128906 0.0625 -4.734375 C 0.0820312 -5.347656 0.078125 -5.960938 0.046875 -6.578125 C 0.046875 -6.804688 0.0507812 -7.238281 0.0625 -7.875 C 0.0820312 -8.519531 0.132812 -9.203125 0.21875 -9.921875 C 0.300781 -10.640625 0.421875 -11.257812 0.578125 -11.78125 C 0.742188 -12.3125 0.960938 -12.578125 1.234375 -12.578125 C 1.878906 -12.578125 2.210938 -12.363281 2.234375 -11.9375 C 2.253906 -11.507812 2.226562 -10.953125 2.15625 -10.265625 C 2.125 -10.035156 2.109375 -9.78125 2.109375 -9.5 C 2.109375 -9.226562 2.109375 -8.957031 2.109375 -8.6875 C 2.109375 -8.363281 2.09375 -8.148438 2.0625 -8.046875 C 2.03125 -7.953125 2.015625 -7.742188 2.015625 -7.421875 C 2.367188 -7.679688 2.691406 -7.984375 2.984375 -8.328125 C 3.285156 -8.671875 3.8125 -8.84375 4.5625 -8.84375 C 4.789062 -8.84375 5.09375 -8.847656 5.46875 -8.859375 C 5.851562 -8.878906 6.257812 -8.890625 6.6875 -8.890625 C 7.40625 -8.890625 8.070312 -8.847656 8.6875 -8.765625 C 9.3125 -8.679688 9.625 -8.476562 9.625 -8.15625 C 9.625 -7.820312 9.453125 -7.609375 9.109375 -7.515625 C 8.765625 -7.421875 8.347656 -7.375 7.859375 -7.375 C 7.535156 -7.375 7.203125 -7.378906 6.859375 -7.390625 C 6.515625 -7.410156 6.207031 -7.421875 5.9375 -7.421875 C 5.019531 -7.421875 4.40625 -7.367188 4.09375 -7.265625 C 3.789062 -7.171875 3.441406 -6.796875 3.046875 -6.140625 C 2.816406 -5.710938 2.59375 -5.253906 2.375 -4.765625 C 2.164062 -4.273438 2.015625 -3.734375 1.921875 -3.140625 C 1.816406 -2.710938 1.769531 -2.269531 1.78125 -1.8125 C 1.800781 -1.351562 1.753906 -0.96875 1.640625 -0.65625 C 1.523438 -0.351562 1.207031 -0.203125 0.6875 -0.203125 Z M 0.6875 -0.203125 "/></g></g></g><g fill="#000000" fill-opacity="1"><g transform="translate(663.747211, 294.332895)"><g><path d="M 4.078125 0.203125 C 3.421875 0.203125 2.835938 -0.0078125 2.328125 -0.4375 C 1.828125 -0.863281 1.441406 -1.304688 1.171875 -1.765625 C 0.585938 -2.878906 0.253906 -4.195312 0.171875 -5.71875 C 0.0859375 -7.238281 0.175781 -8.625 0.4375 -9.875 C 0.507812 -10.238281 0.601562 -10.671875 0.71875 -11.171875 C 0.832031 -11.679688 1.003906 -12.128906 1.234375 -12.515625 C 1.460938 -12.910156 1.738281 -13.109375 2.0625 -13.109375 C 2.8125 -13.109375 3.175781 -12.851562 3.15625 -12.34375 C 3.144531 -11.84375 3.007812 -11.0625 2.75 -10 C 2.488281 -8.9375 2.359375 -7.566406 2.359375 -5.890625 C 2.359375 -5.398438 2.421875 -4.8125 2.546875 -4.125 C 2.679688 -3.4375 2.890625 -2.828125 3.171875 -2.296875 C 3.453125 -1.773438 3.800781 -1.515625 4.21875 -1.515625 C 4.75 -1.515625 5.347656 -1.742188 6.015625 -2.203125 C 6.691406 -2.660156 7.316406 -3.175781 7.890625 -3.75 C 8.460938 -4.332031 8.863281 -4.769531 9.09375 -5.0625 C 9.15625 -5.125 9.332031 -5.34375 9.625 -5.71875 C 9.925781 -6.09375 10.28125 -6.519531 10.6875 -7 C 11.09375 -7.476562 11.492188 -7.894531 11.890625 -8.25 C 12.285156 -8.613281 12.597656 -8.796875 12.828125 -8.796875 C 13.054688 -8.796875 13.171875 -8.597656 13.171875 -8.203125 C 13.171875 -7.972656 13.015625 -7.617188 12.703125 -7.140625 C 12.390625 -6.671875 12.019531 -6.171875 11.59375 -5.640625 C 11.164062 -5.117188 10.75 -4.628906 10.34375 -4.171875 C 9.9375 -3.710938 9.632812 -3.382812 9.4375 -3.1875 C 9.039062 -2.800781 8.570312 -2.335938 8.03125 -1.796875 C 7.488281 -1.253906 6.890625 -0.785156 6.234375 -0.390625 C 5.578125 0.00390625 4.859375 0.203125 4.078125 0.203125 Z M 2.5 -19.3125 C 2.5 -19.863281 2.644531 -20.34375 2.9375 -20.75 C 3.238281 -21.164062 3.570312 -21.375 3.9375 -21.375 C 4.320312 -21.375 4.644531 -21.125 4.90625 -20.625 C 5.363281 -19.707031 5.421875 -18.992188 5.078125 -18.484375 C 4.734375 -17.984375 4.316406 -17.734375 3.828125 -17.734375 C 3.503906 -17.734375 3.203125 -17.863281 2.921875 -18.125 C 2.640625 -18.382812 2.5 -18.78125 2.5 -19.3125 Z M 2.5 -19.3125 "/></g></g></g><g fill="#000000" fill-opacity="1"><g transform="translate(674.945656, 294.332895)"><g><path d="M 0 -6.734375 C 0 -7.316406 0.117188 -8 0.359375 -8.78125 C 0.609375 -9.570312 0.953125 -10.34375 1.390625 -11.09375 C 1.835938 -11.851562 2.363281 -12.484375 2.96875 -12.984375 C 3.570312 -13.492188 4.238281 -13.75 4.96875 -13.75 C 6.007812 -13.75 6.53125 -13.097656 6.53125 -11.796875 C 6.53125 -10.941406 6.316406 -10.515625 5.890625 -10.515625 C 5.398438 -10.515625 5.109375 -10.941406 5.015625 -11.796875 C 4.453125 -11.398438 3.914062 -10.722656 3.40625 -9.765625 C 2.90625 -8.816406 2.570312 -7.800781 2.40625 -6.71875 C 2.238281 -5.644531 2.351562 -4.695312 2.75 -3.875 C 2.914062 -3.457031 3.15625 -3.097656 3.46875 -2.796875 C 3.78125 -2.503906 4.226562 -2.359375 4.8125 -2.359375 C 5.957031 -2.359375 7.015625 -2.675781 7.984375 -3.3125 C 8.953125 -3.957031 9.835938 -4.726562 10.640625 -5.625 C 11.441406 -6.519531 12.132812 -7.378906 12.71875 -8.203125 C 13.082031 -8.691406 13.410156 -8.9375 13.703125 -8.9375 C 13.929688 -8.9375 14.09375 -8.820312 14.1875 -8.59375 C 14.289062 -8.363281 14.257812 -8.085938 14.09375 -7.765625 C 14.03125 -7.597656 13.925781 -7.414062 13.78125 -7.21875 C 13.632812 -7.019531 13.492188 -6.84375 13.359375 -6.6875 C 12.671875 -5.832031 11.882812 -4.945312 11 -4.03125 C 10.113281 -3.113281 9.144531 -2.332031 8.09375 -1.6875 C 7.050781 -1.050781 5.941406 -0.734375 4.765625 -0.734375 C 3.648438 -0.734375 2.738281 -1.019531 2.03125 -1.59375 C 1.332031 -2.164062 0.816406 -2.910156 0.484375 -3.828125 C 0.160156 -4.742188 0 -5.710938 0 -6.734375 Z M 0 -6.734375 "/></g></g></g><g fill="#000000" fill-opacity="1"><g transform="translate(686.83172, 294.332895)"><g><path d="M 2.265625 -8.890625 C 2.878906 -9.222656 3.5625 -9.675781 4.3125 -10.25 C 5.070312 -10.820312 5.484375 -11.5 5.546875 -12.28125 C 5.117188 -12.21875 4.664062 -11.988281 4.1875 -11.59375 C 3.71875 -11.195312 3.3125 -10.753906 2.96875 -10.265625 C 2.625 -9.773438 2.390625 -9.316406 2.265625 -8.890625 Z M 0.046875 -7.71875 C 0.046875 -8.53125 0.316406 -9.410156 0.859375 -10.359375 C 1.398438 -11.316406 2.070312 -12.128906 2.875 -12.796875 C 3.675781 -13.460938 4.46875 -13.796875 5.25 -13.796875 C 6.332031 -13.796875 6.898438 -13.382812 6.953125 -12.5625 C 7.003906 -11.75 6.648438 -10.867188 5.890625 -9.921875 C 5.503906 -9.492188 4.914062 -9 4.125 -8.4375 C 3.34375 -7.882812 2.570312 -7.578125 1.8125 -7.515625 C 1.8125 -6.992188 1.828125 -6.523438 1.859375 -6.109375 C 1.898438 -5.703125 2.128906 -5.285156 2.546875 -4.859375 C 2.972656 -4.429688 3.515625 -4.21875 4.171875 -4.21875 C 5.023438 -4.21875 5.910156 -4.488281 6.828125 -5.03125 C 7.742188 -5.570312 8.445312 -6.023438 8.9375 -6.390625 C 9.132812 -6.546875 9.289062 -6.671875 9.40625 -6.765625 C 9.519531 -6.867188 9.660156 -6.988281 9.828125 -7.125 C 10.515625 -7.644531 10.945312 -8.023438 11.125 -8.265625 C 11.300781 -8.515625 11.457031 -8.679688 11.59375 -8.765625 C 11.726562 -8.847656 12.039062 -8.890625 12.53125 -8.890625 C 12.59375 -8.523438 12.613281 -8.273438 12.59375 -8.140625 C 12.582031 -8.015625 12.460938 -7.820312 12.234375 -7.5625 C 11.640625 -6.976562 10.890625 -6.304688 9.984375 -5.546875 C 9.085938 -4.796875 8.125 -4.140625 7.09375 -3.578125 C 6.0625 -3.023438 5.039062 -2.75 4.03125 -2.75 C 3.507812 -2.75 3.007812 -2.835938 2.53125 -3.015625 C 2.050781 -3.203125 1.597656 -3.507812 1.171875 -3.9375 C 0.585938 -4.519531 0.253906 -5.125 0.171875 -5.75 C 0.0859375 -6.375 0.046875 -7.03125 0.046875 -7.71875 Z M 0.046875 -7.71875 "/></g></g></g><g fill="#000000" fill-opacity="1"><g transform="translate(697.489884, 294.332895)"><g><path d="M 0.09375 -3.78125 C 0.09375 -5.414062 0.191406 -7.179688 0.390625 -9.078125 C 0.585938 -10.984375 0.847656 -12.867188 1.171875 -14.734375 C 1.503906 -16.597656 1.867188 -18.285156 2.265625 -19.796875 C 2.421875 -20.285156 2.582031 -20.832031 2.75 -21.4375 C 2.914062 -22.050781 3.128906 -22.578125 3.390625 -23.015625 C 3.648438 -23.453125 3.992188 -23.671875 4.421875 -23.671875 C 4.816406 -23.671875 5.0625 -23.523438 5.15625 -23.234375 C 5.257812 -22.941406 5.269531 -22.585938 5.1875 -22.171875 C 5.101562 -21.765625 4.992188 -21.390625 4.859375 -21.046875 C 4.734375 -20.703125 4.65625 -20.46875 4.625 -20.34375 C 4.351562 -19.351562 4.046875 -18.015625 3.703125 -16.328125 C 3.359375 -14.640625 3.03125 -12.796875 2.71875 -10.796875 C 2.414062 -8.804688 2.179688 -6.828125 2.015625 -4.859375 C 1.847656 -2.898438 1.8125 -1.128906 1.90625 0.453125 C 2.007812 2.046875 2.273438 3.269531 2.703125 4.125 C 3.253906 3.832031 3.710938 3.390625 4.078125 2.796875 C 4.441406 2.210938 4.753906 1.640625 5.015625 1.078125 C 5.765625 -0.359375 6.5 -1.878906 7.21875 -3.484375 C 7.9375 -5.085938 8.691406 -6.59375 9.484375 -8 C 9.742188 -8.53125 10.019531 -8.796875 10.3125 -8.796875 C 10.445312 -8.796875 10.554688 -8.738281 10.640625 -8.625 C 10.722656 -8.507812 10.765625 -8.382812 10.765625 -8.25 C 10.765625 -8.15625 10.628906 -7.84375 10.359375 -7.3125 C 10.097656 -6.789062 9.828125 -6.25 9.546875 -5.6875 C 9.273438 -5.132812 9.085938 -4.78125 8.984375 -4.625 C 8.660156 -3.9375 8.289062 -3.128906 7.875 -2.203125 C 7.46875 -1.285156 7.066406 -0.390625 6.671875 0.484375 C 6.285156 1.367188 5.910156 2.125 5.546875 2.75 C 5.390625 3.007812 5.171875 3.359375 4.890625 3.796875 C 4.609375 4.242188 4.300781 4.628906 3.96875 4.953125 C 3.644531 5.285156 3.269531 5.453125 2.84375 5.453125 C 2.1875 5.453125 1.671875 5.125 1.296875 4.46875 C 0.921875 3.8125 0.648438 2.992188 0.484375 2.015625 C 0.328125 1.035156 0.222656 0.0195312 0.171875 -1.03125 C 0.117188 -2.082031 0.09375 -3 0.09375 -3.78125 Z M 0.09375 -3.78125 "/></g></g></g><g fill="#000000" fill-opacity="1"><g transform="translate(706.134296, 294.332895)"><g><path d="M 2.265625 -8.890625 C 2.878906 -9.222656 3.5625 -9.675781 4.3125 -10.25 C 5.070312 -10.820312 5.484375 -11.5 5.546875 -12.28125 C 5.117188 -12.21875 4.664062 -11.988281 4.1875 -11.59375 C 3.71875 -11.195312 3.3125 -10.753906 2.96875 -10.265625 C 2.625 -9.773438 2.390625 -9.316406 2.265625 -8.890625 Z M 0.046875 -7.71875 C 0.046875 -8.53125 0.316406 -9.410156 0.859375 -10.359375 C 1.398438 -11.316406 2.070312 -12.128906 2.875 -12.796875 C 3.675781 -13.460938 4.46875 -13.796875 5.25 -13.796875 C 6.332031 -13.796875 6.898438 -13.382812 6.953125 -12.5625 C 7.003906 -11.75 6.648438 -10.867188 5.890625 -9.921875 C 5.503906 -9.492188 4.914062 -9 4.125 -8.4375 C 3.34375 -7.882812 2.570312 -7.578125 1.8125 -7.515625 C 1.8125 -6.992188 1.828125 -6.523438 1.859375 -6.109375 C 1.898438 -5.703125 2.128906 -5.285156 2.546875 -4.859375 C 2.972656 -4.429688 3.515625 -4.21875 4.171875 -4.21875 C 5.023438 -4.21875 5.910156 -4.488281 6.828125 -5.03125 C 7.742188 -5.570312 8.445312 -6.023438 8.9375 -6.390625 C 9.132812 -6.546875 9.289062 -6.671875 9.40625 -6.765625 C 9.519531 -6.867188 9.660156 -6.988281 9.828125 -7.125 C 10.515625 -7.644531 10.945312 -8.023438 11.125 -8.265625 C 11.300781 -8.515625 11.457031 -8.679688 11.59375 -8.765625 C 11.726562 -8.847656 12.039062 -8.890625 12.53125 -8.890625 C 12.59375 -8.523438 12.613281 -8.273438 12.59375 -8.140625 C 12.582031 -8.015625 12.460938 -7.820312 12.234375 -7.5625 C 11.640625 -6.976562 10.890625 -6.304688 9.984375 -5.546875 C 9.085938 -4.796875 8.125 -4.140625 7.09375 -3.578125 C 6.0625 -3.023438 5.039062 -2.75 4.03125 -2.75 C 3.507812 -2.75 3.007812 -2.835938 2.53125 -3.015625 C 2.050781 -3.203125 1.597656 -3.507812 1.171875 -3.9375 C 0.585938 -4.519531 0.253906 -5.125 0.171875 -5.75 C 0.0859375 -6.375 0.046875 -7.03125 0.046875 -7.71875 Z M 0.046875 -7.71875 "/></g></g></g><g fill="#000000" fill-opacity="1"><g transform="translate(716.792459, 294.332895)"><g><path d="M 0.59375 8.109375 C 0.59375 8.796875 0.804688 9.140625 1.234375 9.140625 C 1.460938 9.140625 1.707031 9.054688 1.96875 8.890625 C 2.226562 8.722656 2.441406 8.578125 2.609375 8.453125 C 3.265625 7.960938 3.84375 7.21875 4.34375 6.21875 C 4.851562 5.21875 5.222656 4.304688 5.453125 3.484375 C 5.617188 2.929688 5.707031 2.367188 5.71875 1.796875 C 5.738281 1.222656 5.75 0.59375 5.75 -0.09375 C 5.351562 0.132812 4.898438 0.535156 4.390625 1.109375 C 3.890625 1.679688 3.488281 2.144531 3.1875 2.5 C 2.601562 3.226562 2.023438 4.097656 1.453125 5.109375 C 0.878906 6.117188 0.59375 7.117188 0.59375 8.109375 Z M 0.140625 -7.953125 C 0.140625 -8.804688 0.367188 -9.566406 0.828125 -10.234375 C 1.285156 -10.910156 1.832031 -11.453125 2.46875 -11.859375 C 3.113281 -12.273438 3.664062 -12.484375 4.125 -12.484375 C 4.488281 -12.484375 4.757812 -12.347656 4.9375 -12.078125 C 5.113281 -11.816406 5.125 -11.378906 4.96875 -10.765625 C 4.570312 -10.660156 4.289062 -10.597656 4.125 -10.578125 C 3.957031 -10.566406 3.828125 -10.519531 3.734375 -10.4375 C 3.640625 -10.351562 3.457031 -10.164062 3.1875 -9.875 C 2.53125 -9.15625 2.226562 -8.570312 2.28125 -8.125 C 2.332031 -7.6875 2.59375 -7.28125 3.0625 -6.90625 C 3.539062 -6.53125 4.128906 -6.0625 4.828125 -5.5 C 5.535156 -4.945312 6.203125 -4.195312 6.828125 -3.25 C 7.546875 -3.738281 8.28125 -4.3125 9.03125 -4.96875 L 13.609375 -8.15625 C 14.035156 -8.445312 14.398438 -8.648438 14.703125 -8.765625 C 15.015625 -8.878906 15.289062 -8.9375 15.53125 -8.9375 C 15.914062 -8.9375 16.078125 -8.769531 16.015625 -8.4375 C 15.953125 -8.113281 15.640625 -7.789062 15.078125 -7.46875 L 11.734375 -5.15625 C 11.609375 -5.09375 11.332031 -4.90625 10.90625 -4.59375 C 10.476562 -4.28125 10.007812 -3.9375 9.5 -3.5625 C 9 -3.1875 8.566406 -2.832031 8.203125 -2.5 C 7.835938 -2.175781 7.640625 -1.960938 7.609375 -1.859375 C 7.578125 -1.703125 7.625 -1.394531 7.75 -0.9375 C 7.882812 -0.476562 7.976562 0.117188 8.03125 0.859375 C 8.082031 1.597656 7.984375 2.5 7.734375 3.5625 C 7.492188 4.625 6.960938 5.859375 6.140625 7.265625 C 5.421875 8.484375 4.632812 9.378906 3.78125 9.953125 C 2.925781 10.523438 2.125 10.8125 1.375 10.8125 C 0.6875 10.8125 0.125 10.582031 -0.3125 10.125 C -0.757812 9.664062 -0.984375 8.992188 -0.984375 8.109375 C -0.984375 6.992188 -0.710938 5.910156 -0.171875 4.859375 C 0.367188 3.816406 1.015625 2.851562 1.765625 1.96875 C 2.515625 1.082031 3.207031 0.320312 3.84375 -0.3125 C 4.488281 -0.957031 4.910156 -1.425781 5.109375 -1.71875 C 4.710938 -2.40625 4.234375 -3.003906 3.671875 -3.515625 C 3.117188 -4.023438 2.570312 -4.488281 2.03125 -4.90625 C 1.5 -5.332031 1.050781 -5.78125 0.6875 -6.25 C 0.320312 -6.726562 0.140625 -7.296875 0.140625 -7.953125 Z M 0.140625 -7.953125 "/></g></g></g><g fill="#000000" fill-opacity="1"><g transform="translate(730.986969, 294.332895)"><g><path d="M 0.59375 8.109375 C 0.59375 8.796875 0.804688 9.140625 1.234375 9.140625 C 1.460938 9.140625 1.707031 9.054688 1.96875 8.890625 C 2.226562 8.722656 2.441406 8.578125 2.609375 8.453125 C 3.265625 7.960938 3.84375 7.21875 4.34375 6.21875 C 4.851562 5.21875 5.222656 4.304688 5.453125 3.484375 C 5.617188 2.929688 5.707031 2.367188 5.71875 1.796875 C 5.738281 1.222656 5.75 0.59375 5.75 -0.09375 C 5.351562 0.132812 4.898438 0.535156 4.390625 1.109375 C 3.890625 1.679688 3.488281 2.144531 3.1875 2.5 C 2.601562 3.226562 2.023438 4.097656 1.453125 5.109375 C 0.878906 6.117188 0.59375 7.117188 0.59375 8.109375 Z M 0.140625 -7.953125 C 0.140625 -8.804688 0.367188 -9.566406 0.828125 -10.234375 C 1.285156 -10.910156 1.832031 -11.453125 2.46875 -11.859375 C 3.113281 -12.273438 3.664062 -12.484375 4.125 -12.484375 C 4.488281 -12.484375 4.757812 -12.347656 4.9375 -12.078125 C 5.113281 -11.816406 5.125 -11.378906 4.96875 -10.765625 C 4.570312 -10.660156 4.289062 -10.597656 4.125 -10.578125 C 3.957031 -10.566406 3.828125 -10.519531 3.734375 -10.4375 C 3.640625 -10.351562 3.457031 -10.164062 3.1875 -9.875 C 2.53125 -9.15625 2.226562 -8.570312 2.28125 -8.125 C 2.332031 -7.6875 2.59375 -7.28125 3.0625 -6.90625 C 3.539062 -6.53125 4.128906 -6.0625 4.828125 -5.5 C 5.535156 -4.945312 6.203125 -4.195312 6.828125 -3.25 C 7.546875 -3.738281 8.28125 -4.3125 9.03125 -4.96875 L 13.609375 -8.15625 C 14.035156 -8.445312 14.398438 -8.648438 14.703125 -8.765625 C 15.015625 -8.878906 15.289062 -8.9375 15.53125 -8.9375 C 15.914062 -8.9375 16.078125 -8.769531 16.015625 -8.4375 C 15.953125 -8.113281 15.640625 -7.789062 15.078125 -7.46875 L 11.734375 -5.15625 C 11.609375 -5.09375 11.332031 -4.90625 10.90625 -4.59375 C 10.476562 -4.28125 10.007812 -3.9375 9.5 -3.5625 C 9 -3.1875 8.566406 -2.832031 8.203125 -2.5 C 7.835938 -2.175781 7.640625 -1.960938 7.609375 -1.859375 C 7.578125 -1.703125 7.625 -1.394531 7.75 -0.9375 C 7.882812 -0.476562 7.976562 0.117188 8.03125 0.859375 C 8.082031 1.597656 7.984375 2.5 7.734375 3.5625 C 7.492188 4.625 6.960938 5.859375 6.140625 7.265625 C 5.421875 8.484375 4.632812 9.378906 3.78125 9.953125 C 2.925781 10.523438 2.125 10.8125 1.375 10.8125 C 0.6875 10.8125 0.125 10.582031 -0.3125 10.125 C -0.757812 9.664062 -0.984375 8.992188 -0.984375 8.109375 C -0.984375 6.992188 -0.710938 5.910156 -0.171875 4.859375 C 0.367188 3.816406 1.015625 2.851562 1.765625 1.96875 C 2.515625 1.082031 3.207031 0.320312 3.84375 -0.3125 C 4.488281 -0.957031 4.910156 -1.425781 5.109375 -1.71875 C 4.710938 -2.40625 4.234375 -3.003906 3.671875 -3.515625 C 3.117188 -4.023438 2.570312 -4.488281 2.03125 -4.90625 C 1.5 -5.332031 1.050781 -5.78125 0.6875 -6.25 C 0.320312 -6.726562 0.140625 -7.296875 0.140625 -7.953125 Z M 0.140625 -7.953125 "/></g></g></g></svg>